<mxfile host="app.diagrams.net" modified="2023-05-08T10:08:27.083Z" agent="Mozilla/5.0 (Windows NT 10.0; Win64; x64) AppleWebKit/537.36 (KHTML, like Gecko) Chrome/113.0.0.0 Safari/537.36 Edg/113.0.1774.35" etag="t-F0xsvjpZUqb9UqC-oj" version="21.2.9" type="github">
  <diagram name="第 1 页" id="j49GvRIL2GRFCwkdmflO">
    <mxGraphModel dx="1206" dy="663" grid="0" gridSize="10" guides="1" tooltips="1" connect="1" arrows="1" fold="1" page="1" pageScale="1" pageWidth="827" pageHeight="1169" math="0" shadow="0">
      <root>
        <mxCell id="0" />
        <mxCell id="1" parent="0" />
        <mxCell id="QZrCCBk5yB5lEZgrNjCu-1" value="" style="rounded=1;whiteSpace=wrap;html=1;fillColor=#f5f5f5;fontColor=#333333;strokeColor=#666666;" vertex="1" parent="1">
          <mxGeometry x="60" y="150" width="230" height="410" as="geometry" />
        </mxCell>
        <mxCell id="QZrCCBk5yB5lEZgrNjCu-2" value="user:ranking" style="rounded=1;whiteSpace=wrap;html=1;fillColor=#f8cecc;strokeColor=#b85450;sketch=1;curveFitting=1;jiggle=2;fontSize=19;fontStyle=1" vertex="1" parent="1">
          <mxGeometry x="115" y="328" width="120" height="60" as="geometry" />
        </mxCell>
        <mxCell id="QZrCCBk5yB5lEZgrNjCu-3" value="" style="rounded=1;whiteSpace=wrap;html=1;fillColor=#f5f5f5;fontColor=#333333;strokeColor=#666666;" vertex="1" parent="1">
          <mxGeometry x="414" y="150" width="296" height="410" as="geometry" />
        </mxCell>
        <mxCell id="QZrCCBk5yB5lEZgrNjCu-4" value="" style="shape=table;startSize=0;container=1;collapsible=0;childLayout=tableLayout;fontSize=19;sketch=1;curveFitting=1;jiggle=2;fillColor=#dae8fc;strokeColor=#6c8ebf;" vertex="1" parent="1">
          <mxGeometry x="438" y="220" width="252" height="310" as="geometry" />
        </mxCell>
        <mxCell id="QZrCCBk5yB5lEZgrNjCu-5" value="" style="shape=tableRow;horizontal=0;startSize=0;swimlaneHead=0;swimlaneBody=0;strokeColor=inherit;top=0;left=0;bottom=0;right=0;collapsible=0;dropTarget=0;fillColor=none;points=[[0,0.5],[1,0.5]];portConstraint=eastwest;" vertex="1" parent="QZrCCBk5yB5lEZgrNjCu-4">
          <mxGeometry width="252" height="52" as="geometry" />
        </mxCell>
        <mxCell id="QZrCCBk5yB5lEZgrNjCu-6" value="80" style="shape=partialRectangle;html=1;whiteSpace=wrap;connectable=0;strokeColor=inherit;overflow=hidden;fillColor=none;top=0;left=0;bottom=0;right=0;pointerEvents=1;fontSize=19;" vertex="1" parent="QZrCCBk5yB5lEZgrNjCu-5">
          <mxGeometry width="127" height="52" as="geometry">
            <mxRectangle width="127" height="52" as="alternateBounds" />
          </mxGeometry>
        </mxCell>
        <mxCell id="QZrCCBk5yB5lEZgrNjCu-7" value="tom" style="shape=partialRectangle;html=1;whiteSpace=wrap;connectable=0;strokeColor=inherit;overflow=hidden;fillColor=none;top=0;left=0;bottom=0;right=0;pointerEvents=1;fontSize=19;" vertex="1" parent="QZrCCBk5yB5lEZgrNjCu-5">
          <mxGeometry x="127" width="125" height="52" as="geometry">
            <mxRectangle width="125" height="52" as="alternateBounds" />
          </mxGeometry>
        </mxCell>
        <mxCell id="QZrCCBk5yB5lEZgrNjCu-8" value="" style="shape=tableRow;horizontal=0;startSize=0;swimlaneHead=0;swimlaneBody=0;strokeColor=inherit;top=0;left=0;bottom=0;right=0;collapsible=0;dropTarget=0;fillColor=none;points=[[0,0.5],[1,0.5]];portConstraint=eastwest;fontSize=19;" vertex="1" parent="QZrCCBk5yB5lEZgrNjCu-4">
          <mxGeometry y="52" width="252" height="51" as="geometry" />
        </mxCell>
        <mxCell id="QZrCCBk5yB5lEZgrNjCu-9" value="&lt;font style=&quot;font-size: 19px;&quot;&gt;81&lt;/font&gt;" style="shape=partialRectangle;html=1;whiteSpace=wrap;connectable=0;strokeColor=inherit;overflow=hidden;fillColor=none;top=0;left=0;bottom=0;right=0;pointerEvents=1;" vertex="1" parent="QZrCCBk5yB5lEZgrNjCu-8">
          <mxGeometry width="127" height="51" as="geometry">
            <mxRectangle width="127" height="51" as="alternateBounds" />
          </mxGeometry>
        </mxCell>
        <mxCell id="QZrCCBk5yB5lEZgrNjCu-10" value="jerry" style="shape=partialRectangle;html=1;whiteSpace=wrap;connectable=0;strokeColor=inherit;overflow=hidden;fillColor=none;top=0;left=0;bottom=0;right=0;pointerEvents=1;fontSize=19;" vertex="1" parent="QZrCCBk5yB5lEZgrNjCu-8">
          <mxGeometry x="127" width="125" height="51" as="geometry">
            <mxRectangle width="125" height="51" as="alternateBounds" />
          </mxGeometry>
        </mxCell>
        <mxCell id="QZrCCBk5yB5lEZgrNjCu-11" value="" style="shape=tableRow;horizontal=0;startSize=0;swimlaneHead=0;swimlaneBody=0;strokeColor=inherit;top=0;left=0;bottom=0;right=0;collapsible=0;dropTarget=0;fillColor=none;points=[[0,0.5],[1,0.5]];portConstraint=eastwest;" vertex="1" parent="QZrCCBk5yB5lEZgrNjCu-4">
          <mxGeometry y="103" width="252" height="52" as="geometry" />
        </mxCell>
        <mxCell id="QZrCCBk5yB5lEZgrNjCu-12" value="85" style="shape=partialRectangle;html=1;whiteSpace=wrap;connectable=0;strokeColor=inherit;overflow=hidden;fillColor=none;top=0;left=0;bottom=0;right=0;pointerEvents=1;fontSize=19;" vertex="1" parent="QZrCCBk5yB5lEZgrNjCu-11">
          <mxGeometry width="127" height="52" as="geometry">
            <mxRectangle width="127" height="52" as="alternateBounds" />
          </mxGeometry>
        </mxCell>
        <mxCell id="QZrCCBk5yB5lEZgrNjCu-13" value="lucy" style="shape=partialRectangle;html=1;whiteSpace=wrap;connectable=0;strokeColor=inherit;overflow=hidden;fillColor=none;top=0;left=0;bottom=0;right=0;pointerEvents=1;fontSize=19;" vertex="1" parent="QZrCCBk5yB5lEZgrNjCu-11">
          <mxGeometry x="127" width="125" height="52" as="geometry">
            <mxRectangle width="125" height="52" as="alternateBounds" />
          </mxGeometry>
        </mxCell>
        <mxCell id="QZrCCBk5yB5lEZgrNjCu-14" value="" style="shape=tableRow;horizontal=0;startSize=0;swimlaneHead=0;swimlaneBody=0;strokeColor=inherit;top=0;left=0;bottom=0;right=0;collapsible=0;dropTarget=0;fillColor=none;points=[[0,0.5],[1,0.5]];portConstraint=eastwest;" vertex="1" parent="QZrCCBk5yB5lEZgrNjCu-4">
          <mxGeometry y="155" width="252" height="52" as="geometry" />
        </mxCell>
        <mxCell id="QZrCCBk5yB5lEZgrNjCu-15" value="88" style="shape=partialRectangle;html=1;whiteSpace=wrap;connectable=0;strokeColor=inherit;overflow=hidden;fillColor=none;top=0;left=0;bottom=0;right=0;pointerEvents=1;fontSize=19;" vertex="1" parent="QZrCCBk5yB5lEZgrNjCu-14">
          <mxGeometry width="127" height="52" as="geometry">
            <mxRectangle width="127" height="52" as="alternateBounds" />
          </mxGeometry>
        </mxCell>
        <mxCell id="QZrCCBk5yB5lEZgrNjCu-16" value="james" style="shape=partialRectangle;html=1;whiteSpace=wrap;connectable=0;strokeColor=inherit;overflow=hidden;fillColor=none;top=0;left=0;bottom=0;right=0;pointerEvents=1;fontSize=19;" vertex="1" parent="QZrCCBk5yB5lEZgrNjCu-14">
          <mxGeometry x="127" width="125" height="52" as="geometry">
            <mxRectangle width="125" height="52" as="alternateBounds" />
          </mxGeometry>
        </mxCell>
        <mxCell id="QZrCCBk5yB5lEZgrNjCu-17" value="" style="shape=tableRow;horizontal=0;startSize=0;swimlaneHead=0;swimlaneBody=0;strokeColor=inherit;top=0;left=0;bottom=0;right=0;collapsible=0;dropTarget=0;fillColor=none;points=[[0,0.5],[1,0.5]];portConstraint=eastwest;" vertex="1" parent="QZrCCBk5yB5lEZgrNjCu-4">
          <mxGeometry y="207" width="252" height="51" as="geometry" />
        </mxCell>
        <mxCell id="QZrCCBk5yB5lEZgrNjCu-18" value="88" style="shape=partialRectangle;html=1;whiteSpace=wrap;connectable=0;strokeColor=inherit;overflow=hidden;fillColor=none;top=0;left=0;bottom=0;right=0;pointerEvents=1;fontSize=19;" vertex="1" parent="QZrCCBk5yB5lEZgrNjCu-17">
          <mxGeometry width="127" height="51" as="geometry">
            <mxRectangle width="127" height="51" as="alternateBounds" />
          </mxGeometry>
        </mxCell>
        <mxCell id="QZrCCBk5yB5lEZgrNjCu-19" value="jane" style="shape=partialRectangle;html=1;whiteSpace=wrap;connectable=0;strokeColor=inherit;overflow=hidden;fillColor=none;top=0;left=0;bottom=0;right=0;pointerEvents=1;fontSize=19;" vertex="1" parent="QZrCCBk5yB5lEZgrNjCu-17">
          <mxGeometry x="127" width="125" height="51" as="geometry">
            <mxRectangle width="125" height="51" as="alternateBounds" />
          </mxGeometry>
        </mxCell>
        <mxCell id="QZrCCBk5yB5lEZgrNjCu-20" value="" style="shape=tableRow;horizontal=0;startSize=0;swimlaneHead=0;swimlaneBody=0;strokeColor=inherit;top=0;left=0;bottom=0;right=0;collapsible=0;dropTarget=0;fillColor=none;points=[[0,0.5],[1,0.5]];portConstraint=eastwest;" vertex="1" parent="QZrCCBk5yB5lEZgrNjCu-4">
          <mxGeometry y="258" width="252" height="52" as="geometry" />
        </mxCell>
        <mxCell id="QZrCCBk5yB5lEZgrNjCu-21" value="95" style="shape=partialRectangle;html=1;whiteSpace=wrap;connectable=0;strokeColor=inherit;overflow=hidden;fillColor=none;top=0;left=0;bottom=0;right=0;pointerEvents=1;fontSize=19;" vertex="1" parent="QZrCCBk5yB5lEZgrNjCu-20">
          <mxGeometry width="127" height="52" as="geometry">
            <mxRectangle width="127" height="52" as="alternateBounds" />
          </mxGeometry>
        </mxCell>
        <mxCell id="QZrCCBk5yB5lEZgrNjCu-22" value="marry" style="shape=partialRectangle;html=1;whiteSpace=wrap;connectable=0;strokeColor=inherit;overflow=hidden;fillColor=none;top=0;left=0;bottom=0;right=0;pointerEvents=1;fontSize=19;" vertex="1" parent="QZrCCBk5yB5lEZgrNjCu-20">
          <mxGeometry x="127" width="125" height="52" as="geometry">
            <mxRectangle width="125" height="52" as="alternateBounds" />
          </mxGeometry>
        </mxCell>
        <mxCell id="QZrCCBk5yB5lEZgrNjCu-23" value="&lt;font style=&quot;font-size: 40px;&quot;&gt;key&lt;/font&gt;" style="text;html=1;strokeColor=none;fillColor=none;align=center;verticalAlign=middle;whiteSpace=wrap;rounded=0;fontSize=40;" vertex="1" parent="1">
          <mxGeometry x="145" y="170" width="60" height="30" as="geometry" />
        </mxCell>
        <mxCell id="QZrCCBk5yB5lEZgrNjCu-24" value="&lt;font style=&quot;font-size: 40px;&quot;&gt;Value&lt;/font&gt;" style="text;html=1;strokeColor=none;fillColor=none;align=center;verticalAlign=middle;whiteSpace=wrap;rounded=0;fontSize=40;" vertex="1" parent="1">
          <mxGeometry x="532" y="170" width="60" height="30" as="geometry" />
        </mxCell>
        <mxCell id="QZrCCBk5yB5lEZgrNjCu-25" style="edgeStyle=orthogonalEdgeStyle;rounded=0;orthogonalLoop=1;jettySize=auto;html=1;exitX=1;exitY=0.5;exitDx=0;exitDy=0;entryX=-0.009;entryY=0.661;entryDx=0;entryDy=0;entryPerimeter=0;" edge="1" parent="1" source="QZrCCBk5yB5lEZgrNjCu-2" target="QZrCCBk5yB5lEZgrNjCu-11">
          <mxGeometry relative="1" as="geometry" />
        </mxCell>
      </root>
    </mxGraphModel>
  </diagram>
</mxfile>
